Simulation
nRows=16
nColumns=15
endheader
time  TH_x TH_y TH_z SC_y  SC_z  SC_x  AC_y  AC_z  AC_x  GH_y  GH_z  GH_yy  EL_x  PS_y
2.8725  0.000000  0.000000  0.000000  -33.49198805727347  -1.191575326110549  -2.172050276025239  45.944619255648604  -5.269737285111247  0.8430493069699804  2.5208855800118495  19.65390884935673  0.5033810717739362  14.186173206357203  120.000000
2.92995  0.000000  0.000000  0.000000  -34.490770004289935  0.16614102410816697  -2.9412174192572196  44.488159428423096  -2.5343890056213336  0.40589854907917755  13.590294820413176  14.963253582940068  -5.470643442876778  14.523510192952552  120.000000
2.9874  0.000000  0.000000  0.000000  -35.72691541456472  1.1675639367275736  -3.5453070366254424  43.384490249537194  -0.22507044972005466  0.2387413947404523  27.678657503685997  11.658245654968495  -14.999928644669406  14.934438176552638  120.000000
3.0448500000000003  0.000000  0.000000  0.000000  -37.12010918577134  1.901574231667708  -3.91394561669561  42.629133168744985  1.6395976803200447  0.2146997876536598  44.21198635137561  9.648579002739435  -27.624676381073048  15.386701275989807  120.000000
3.1023  0.000000  0.000000  0.000000  -38.59287557568914  2.4623596587664722  -4.047402828137855  42.17756761000705  3.093049437771063  0.25090104029922117  61.0159472604549  8.703162274012854  -41.20152860108822  15.84835835505818  120.000000
3.15975  0.000000  0.000000  0.000000  -40.059647222170994  2.9021214070130843  -3.9849735931786223  41.96563821694597  4.203054697884763  0.30132364594992045  75.50907563407785  8.465766684759291  -53.11969397176703  16.291427273106365  120.000000
3.2172  0.000000  0.000000  0.000000  -41.44678348916525  3.2505056304042843  -3.7746910920041725  41.92625710914343  5.041688541757054  0.34351836823939247  86.56564567285784  8.593857298176877  -62.182023879360884  16.7011501237734  120.000000
3.2746500000000003  0.000000  0.000000  0.000000  -42.68478924895747  3.5199216810648046  -3.456154761584059  41.987770953761  5.669465912442112  0.35448033484491753  94.43410114067159  8.84703683705975  -68.5230736940056  17.077831259106556  120.000000
3.3321  0.000000  0.000000  0.000000  -43.7145594861785  3.724062323297325  -3.0633007520928923  42.08053063011597  6.130114415266946  0.30712774325826886  99.85680651367251  9.094757758706924  -72.7615118279958  17.432607385373746  120.000000
3.38955  0.000000  0.000000  0.000000  -44.50363855200957  3.878064789594144  -2.6246664156071184  42.150062888494446  6.45050638240842  0.173654710915875  103.47575572041437  9.289465799280553  -75.43828172909615  17.776653589591326  120.000000
3.447  0.000000  0.000000  0.000000  -45.04228989632765  3.9974441018102316  -2.1658529316499098  42.16333772562646  6.63940603060981  -0.05953458628132988  105.70925709298265  9.431891947188728  -76.90798433083833  18.11765448743965  120.000000
3.5044500000000003  0.000000  0.000000  0.000000  -45.33435993225713  4.089658737826598  -1.7116024734042632  42.118871060361585  6.693911602269913  -0.3862194143149852  106.7830577436233  9.542207584489129  -77.37136979085994  18.460232098784026  120.000000
3.5619  0.000000  0.000000  0.000000  -45.387318891825494  4.1531349031323135  -1.2861731131417953  42.038677956724165  6.606636939038325  -0.7786522815276561  106.83151966034524  9.63913347974713  -76.97074986535237  18.80820485407876  120.000000
3.61935  0.000000  0.000000  0.000000  -45.21272446597982  4.176136447317711  -0.9103340855769546  41.949096401650344  6.369845775886684  -1.185604932403106  105.96675519678081  9.719131925261035  -75.84617419752699  19.162989396895924  120.000000
3.6768  0.000000  0.000000  0.000000  -44.81398114237807  4.147282881399191  -0.6047664253953909  41.882586789846414  5.980720929214616  -1.542916182770694  104.28480369475425  9.753591120640591  -74.13081963050098  19.526826685586776  120.000000
3.7342500000000003  0.000000  0.000000  0.000000  -44.19413232578078  4.065704817843169  -0.3919997729704983  41.89325220844088  5.442418745493  -1.7830395153962213  101.77140267801133  9.704231058855994  -71.85675981716454  19.90268751684389  120.000000
